<svg width="49" height="49" xmlns="http://www.w3.org/2000/svg" xmlns:xlink="http://www.w3.org/1999/xlink" xml:space="preserve" overflow="hidden"><g transform="translate(-96 -96)"><g><path d="M120.5 96C106.972 96 96 106.97 96 120.5 96 131.325 103.019 140.508 112.756 143.748 113.979 143.975 114.375 143.216 114.375 142.57L114.375 138.009C107.56 139.492 106.141 135.118 106.141 135.118 105.026 132.287 103.419 131.533 103.419 131.533 101.196 130.012 103.589 130.045 103.589 130.045 106.049 130.216 107.343 132.57 107.343 132.57 109.528 136.315 113.074 135.233 114.473 134.606 114.691 133.024 115.326 131.941 116.029 131.331 110.588 130.708 104.867 128.607 104.867 119.222 104.867 116.545 105.825 114.361 107.39 112.646 107.137 112.027 106.298 109.534 107.629 106.161 107.629 106.161 109.687 105.504 114.369 108.673 116.323 108.13 118.418 107.858 120.5 107.848 122.583 107.858 124.679 108.13 126.637 108.673 131.315 105.504 133.369 106.161 133.369 106.161 134.702 109.536 133.863 112.029 133.61 112.646 135.182 114.361 136.131 116.547 136.131 119.222 136.131 128.632 130.4 130.704 124.945 131.311 125.823 132.07 126.625 133.561 126.625 135.847L126.625 142.57C126.625 143.222 127.017 143.987 128.26 143.746 137.989 140.502 145 131.321 145 120.5 145 106.97 134.03 96 120.5 96Z" fill="#FFFFFF" fill-rule="nonzero" fill-opacity="1"/></g></g></svg>