<svg width="48" height="48" xmlns="http://www.w3.org/2000/svg" xmlns:xlink="http://www.w3.org/1999/xlink" xml:space="preserve" overflow="hidden"><g transform="translate(-96 -96)"><g><path d="M105.96 101.217C105.96 104.099 103.74 106.435 101 106.435 98.26 106.435 96.04 104.099 96.04 101.217 96.04 98.3374 98.26 96 101 96 103.74 96 105.96 98.3374 105.96 101.217ZM106 110.609 96 110.609 96 144 106 144 106 110.609ZM121.964 110.609 112.028 110.609 112.028 144 121.966 144 121.966 126.472C121.966 116.726 134.024 115.928 134.024 126.472L134.024 144 144 144 144 122.857C144 106.412 126.156 107.011 121.964 115.106L121.964 110.609Z" fill="#FFFFFF" fill-rule="nonzero" fill-opacity="1"/></g></g></svg>